<mxfile host="app.diagrams.net" modified="2022-11-12T05:24:33.696Z" agent="5.0 (Macintosh; Intel Mac OS X 10_15_7) AppleWebKit/537.36 (KHTML, like Gecko) Chrome/107.0.0.0 Safari/537.36" etag="Iy0BP41BF8CYMJqKISCi" version="20.5.1" type="github">
  <diagram id="9fnjXT7nlAm7Ix4f8WDv" name="Page-1">
    <mxGraphModel dx="931" dy="710" grid="0" gridSize="10" guides="1" tooltips="1" connect="1" arrows="1" fold="1" page="1" pageScale="1" pageWidth="600" pageHeight="250" background="#EFF1F3" math="0" shadow="0">
      <root>
        <mxCell id="0" />
        <mxCell id="1" parent="0" />
        <mxCell id="-xf_uFu9KCXf6jcXoVjT-4" value="&lt;font style=&quot;font-size: 23px&quot;&gt;16位源端口&lt;/font&gt;" style="rounded=1;whiteSpace=wrap;html=1;fontSize=23;fillColor=#F19C99;" parent="1" vertex="1">
          <mxGeometry x="60" y="40" width="480" height="60" as="geometry" />
        </mxCell>
        <mxCell id="-xf_uFu9KCXf6jcXoVjT-5" value="&lt;font style=&quot;font-size: 23px&quot;&gt;16位目的端口&lt;/font&gt;" style="rounded=1;whiteSpace=wrap;html=1;fontSize=23;fillColor=#F19C99;" parent="1" vertex="1">
          <mxGeometry x="540" y="40" width="480" height="60" as="geometry" />
        </mxCell>
        <mxCell id="-xf_uFu9KCXf6jcXoVjT-6" value="&lt;font style=&quot;font-size: 23px&quot;&gt;16位UDP长度&lt;/font&gt;" style="rounded=1;whiteSpace=wrap;html=1;fontSize=23;fillColor=#B9E0A5;" parent="1" vertex="1">
          <mxGeometry x="60" y="100" width="480" height="60" as="geometry" />
        </mxCell>
        <mxCell id="-xf_uFu9KCXf6jcXoVjT-7" value="&lt;font style=&quot;font-size: 23px&quot;&gt;16位UDP校验和&lt;/font&gt;" style="rounded=1;whiteSpace=wrap;html=1;fontSize=23;fillColor=#B9E0A5;" parent="1" vertex="1">
          <mxGeometry x="540" y="100" width="480" height="60" as="geometry" />
        </mxCell>
        <mxCell id="-xf_uFu9KCXf6jcXoVjT-15" value="&lt;font style=&quot;font-size: 23px;&quot;&gt;数据&lt;/font&gt;" style="rounded=1;whiteSpace=wrap;html=1;fontSize=23;fillColor=#6DB5A8;" parent="1" vertex="1">
          <mxGeometry x="60" y="160" width="960" height="60" as="geometry" />
        </mxCell>
        <mxCell id="2LUimMu3E2EJsUdhh0Rr-1" value="" style="shape=curlyBracket;whiteSpace=wrap;html=1;rounded=1;fillColor=#F19C99;direction=west;strokeWidth=5;" parent="1" vertex="1">
          <mxGeometry x="1050" y="40" width="20" height="120" as="geometry" />
        </mxCell>
        <mxCell id="2LUimMu3E2EJsUdhh0Rr-2" value="&lt;font style=&quot;font-size: 30px&quot;&gt;UDP Header&lt;br&gt;8字节&lt;br&gt;&lt;/font&gt;" style="text;html=1;strokeColor=none;fillColor=none;align=center;verticalAlign=middle;whiteSpace=wrap;rounded=0;" parent="1" vertex="1">
          <mxGeometry x="1080" y="90" width="100" height="20" as="geometry" />
        </mxCell>
      </root>
    </mxGraphModel>
  </diagram>
</mxfile>
